<?xml version="1.0" encoding="UTF-8"?>
<!DOCTYPE svg PUBLIC "-//W3C//DTD SVG 1.1//EN" "http://www.w3.org/Graphics/SVG/1.1/DTD/svg11.dtd">
<svg xmlns="http://www.w3.org/2000/svg" version="1.1" width="24px" height="24px" style="shape-rendering:geometricPrecision; text-rendering:geometricPrecision; image-rendering:optimizeQuality; fill-rule:evenodd; clip-rule:evenodd" xmlns:xlink="http://www.w3.org/1999/xlink">
<g><path style="opacity:0.711" fill="#000000" d="M 6.5,-0.5 C 9.83333,-0.5 13.1667,-0.5 16.5,-0.5C 19.1667,1.5 21.5,3.83333 23.5,6.5C 23.5,9.83333 23.5,13.1667 23.5,16.5C 21.5,19.1667 19.1667,21.5 16.5,23.5C 13.1667,23.5 9.83333,23.5 6.5,23.5C 3.83333,21.5 1.5,19.1667 -0.5,16.5C -0.5,13.1667 -0.5,9.83333 -0.5,6.5C 1.5,3.83333 3.83333,1.5 6.5,-0.5 Z M 8.5,1.5 C 10.0366,7.42239 7.86996,11.7557 2,14.5C 0.972974,8.55404 3.13964,4.22071 8.5,1.5 Z M 13.5,1.5 C 19.6206,3.77911 22.1206,8.11244 21,14.5C 15.4509,11.959 12.9509,7.62563 13.5,1.5 Z M 10.5,15.5 C 12.5504,15.9612 14.5504,16.6279 16.5,17.5C 17.521,18.0016 17.6877,18.6683 17,19.5C 12.8165,22.3821 8.98318,22.0488 5.5,18.5C 7.35958,17.6751 9.02624,16.6751 10.5,15.5 Z"/></g>
</svg>
