
<svg xmlns="http://www.w3.org/2000/svg" xmlns:xlink="http://www.w3.org/1999/xlink" width="200.8159942626953" height="46.867000579833984" viewBox="0 0 200.816 46.867">
  <defs>
    <clipPath id="clip-path">
      <rect id="Rectangle_1" data-name="Rectangle 1" width="200.816" height="46.867" fill="#0f3f93" class="svg-elem-1"></rect>
    </clipPath>
  </defs>
  <g id="Group_5696" data-name="Group 5696" transform="translate(0 0)">
    <g id="Group_2" data-name="Group 2" transform="translate(0 0)">
      <g id="Group_1" data-name="Group 1" clip-path="url(#clip-path)">
	          <path id="Path_9" data-name="Path 9" d="M.372,24.968v-4.3H18.808a3.712,3.712,0,0,0,2.656-.881,3.056,3.056,0,0,0,.931-2.334,2.956,2.956,0,0,0-.931-2.382,3.98,3.98,0,0,0-2.656-.8H7.51a8.864,8.864,0,0,1-3.129-.525A6.765,6.765,0,0,1,2.013,12.3,6.406,6.406,0,0,1,.524,10.08,7.331,7.331,0,0,1,0,7.276,7.6,7.6,0,0,1,.49,4.513,5.873,5.873,0,0,1,1.944,2.336,6.865,6.865,0,0,1,4.33.895,9.429,9.429,0,0,1,7.578.37H25.237v4.3H7.578a3.158,3.158,0,0,0-2.3.793,2.969,2.969,0,0,0-.812,2.219,2.871,2.871,0,0,0,.83,2.2,3.146,3.146,0,0,0,2.25.78H18.808a8.24,8.24,0,0,1,5.7,1.754,6.871,6.871,0,0,1,1.943,5.348,8.451,8.451,0,0,1-.473,2.878,6.229,6.229,0,0,1-1.419,2.283,6.553,6.553,0,0,1-2.385,1.5,9.472,9.472,0,0,1-3.368.543Z" transform="translate(0 -0.033)" fill="#0f3f93" class="svg-elem-2"></path>
			          <path id="Path_10" data-name="Path 10" d="M60.249,24.935l-3.69-6.193H44.924l2.03-3.484h7.541l-5.48-9.2L37.851,24.935h-4.9L47.089,1.39A3.227,3.227,0,0,1,47.966.374,2.007,2.007,0,0,1,49.185,0a1.933,1.933,0,0,1,1.2.374,3.374,3.374,0,0,1,.862,1.016L65.423,24.935Z" transform="translate(-2.871 0)" fill="#0f3f93" class="svg-elem-3"></path>
        <path id="Path_11" data-name="Path 11" d="M105.35,24.939l-4.7-17.287-6.969,16a3.414,3.414,0,0,1-.9,1.2,2.016,2.016,0,0,1-1.3.424,2.291,2.291,0,0,1-2.2-1.626l-6.933-16-4.7,17.287H73.415L79.74,1.8A2.045,2.045,0,0,1,81.873.036a2.342,2.342,0,0,1,2.166,1.459l7.576,17.391,7.58-17.391A2.109,2.109,0,0,1,101.256.036a2.068,2.068,0,0,1,2.063,1.76l6.3,23.143Z" transform="translate(-6.398 -0.004)" fill="#0f3f93" class="svg-elem-4"></path>
        <path id="Path_12" data-name="Path 12" d="M127.036,18.131V13.97h9.88a4.758,4.758,0,0,0,3.536-1.283A4.615,4.615,0,0,0,141.719,9.3a4.545,4.545,0,0,0-1.267-3.386,4.819,4.819,0,0,0-3.536-1.25H123.893v20.3h-4.267V.37h17.289A10.758,10.758,0,0,1,140.721,1a7.9,7.9,0,0,1,2.824,1.758,7.5,7.5,0,0,1,1.758,2.76,10.264,10.264,0,0,1,.612,3.651A10.306,10.306,0,0,1,145.3,12.8a7.92,7.92,0,0,1-1.758,2.821,7.812,7.812,0,0,1-2.824,1.844,10.241,10.241,0,0,1-3.806.662Z" transform="translate(-10.425 -0.033)" fill="#0f3f93" class="svg-elem-5"></path>
        <path id="Path_13" data-name="Path 13" d="M176.8,24.935l-3.687-6.193H161.476l2.028-3.484h7.54l-5.477-9.2L154.405,24.935H149.5L163.639,1.39a3.245,3.245,0,0,1,.88-1.016A2.006,2.006,0,0,1,165.739,0a1.928,1.928,0,0,1,1.2.374A3.4,3.4,0,0,1,167.8,1.39l14.175,23.545Z" transform="translate(-13.029 0)" fill="#0f3f93" class="svg-elem-6"></path>
        <path id="Path_14" data-name="Path 14" d="M191.377,24.968v-4.3h18.437a3.717,3.717,0,0,0,2.656-.881,3.061,3.061,0,0,0,.931-2.334,2.962,2.962,0,0,0-.931-2.382,3.986,3.986,0,0,0-2.656-.8h-11.3a8.866,8.866,0,0,1-3.128-.525,6.765,6.765,0,0,1-2.368-1.455,6.421,6.421,0,0,1-1.49-2.216,7.366,7.366,0,0,1-.525-2.8,7.654,7.654,0,0,1,.492-2.762,5.855,5.855,0,0,1,1.456-2.177A6.852,6.852,0,0,1,195.334.895,9.438,9.438,0,0,1,198.581.37h17.662v4.3H198.581a3.156,3.156,0,0,0-2.3.793,2.956,2.956,0,0,0-.812,2.219,2.86,2.86,0,0,0,.828,2.2,3.148,3.148,0,0,0,2.25.78h11.265a8.247,8.247,0,0,1,5.7,1.754,6.866,6.866,0,0,1,1.946,5.348,8.495,8.495,0,0,1-.477,2.878,6.205,6.205,0,0,1-1.419,2.283,6.53,6.53,0,0,1-2.385,1.5,9.467,9.467,0,0,1-3.367.543Zm10.49,1.587h4.5L204.1,31.767Z" transform="translate(-16.646 -0.033)" fill="#0f3f93" class="svg-elem-7"></path>
    <path id="Path_1" data-name="Path 1" d="M108.923,49.944h2.318V36.569h-2.318ZM119.6,36.569V42.08h-6.678v2.072H119.6v5.792h2.317V36.569Z" transform="translate(-9.493 -3.187)" fill="#0f3f93" class="svg-elem-8"></path>
        <path id="Path_2" data-name="Path 2" d="M132.483,49.887a6.3,6.3,0,0,1-2.568-.521,6.334,6.334,0,0,1-3.392-3.587,7.3,7.3,0,0,1-.486-2.692,7.088,7.088,0,0,1,.486-2.675,5.943,5.943,0,0,1,1.35-2.061,6.022,6.022,0,0,1,2.042-1.317,6.91,6.91,0,0,1,2.568-.466h3.23a7.129,7.129,0,0,1,2.64.472,5.9,5.9,0,0,1,3.387,3.4,7.137,7.137,0,0,1,.473,2.644,7.34,7.34,0,0,1-.486,2.692,6.321,6.321,0,0,1-1.352,2.156,6.312,6.312,0,0,1-4.662,1.952Zm3.23-2.329a4.223,4.223,0,0,0,1.681-.33,3.963,3.963,0,0,0,2.189-2.289,4.78,4.78,0,0,0,.311-1.743,4.715,4.715,0,0,0-.311-1.732,3.921,3.921,0,0,0-2.189-2.249,4.3,4.3,0,0,0-1.681-.326h-3.23a4.177,4.177,0,0,0-1.653.326,3.817,3.817,0,0,0-1.3.887,4.1,4.1,0,0,0-.858,1.354,4.709,4.709,0,0,0-.31,1.74,4.8,4.8,0,0,0,.31,1.743,4.239,4.239,0,0,0,.858,1.386,3.978,3.978,0,0,0,1.3.9,4.1,4.1,0,0,0,1.653.33Z" transform="translate(-10.984 -3.187)" fill="#0f3f93" class="svg-elem-9"></path>
        <path id="Path_3" data-name="Path 3" d="M146.593,49.887V36.568h2.323v10.99h8.922v2.329Z" transform="translate(-12.776 -3.187)" fill="#0f3f93" class="svg-elem-10"></path>
        <path id="Path_4" data-name="Path 4" d="M161.51,49.887V36.569H169.2a6.921,6.921,0,0,1,2.592.472,6.079,6.079,0,0,1,2.048,1.339,6.193,6.193,0,0,1,1.341,2.064,7.028,7.028,0,0,1,.483,2.644,7.4,7.4,0,0,1-.483,2.692,6.571,6.571,0,0,1-1.341,2.156,6.294,6.294,0,0,1-4.639,1.952Zm7.686-2.329a4.012,4.012,0,0,0,3.835-2.619,4.8,4.8,0,0,0,.309-1.743,4.733,4.733,0,0,0-.309-1.732,3.935,3.935,0,0,0-2.183-2.249,4.175,4.175,0,0,0-1.652-.326h-5.384v8.668Z" transform="translate(-14.076 -3.187)" fill="#0f3f93" class="svg-elem-11"></path>
        <path id="Path_8" data-name="Path 8" d="M180.008,40.66v-4.1h2.318v2.425Z" transform="translate(-15.688 -3.186)" fill="#0f3f93" class="svg-elem-12"></path>
        <path id="Path_5" data-name="Path 5" d="M180.008,50.277V42.729l2.318-1.68v9.228Z" transform="translate(-15.688 -3.578)" fill="#0f3f93" class="svg-elem-13"></path>
        <path id="Path_6" data-name="Path 6" d="M188.135,40.122V49.87h-2.209V37.778a1.54,1.54,0,0,1,.319-1.018,1.086,1.086,0,0,1,.867-.377,1.119,1.119,0,0,1,.493.112,1.873,1.873,0,0,1,.495.364l9.363,9.328V36.436h2.211V48.645a1.515,1.515,0,0,1-.321,1.026,1.06,1.06,0,0,1-.829.366,1.479,1.479,0,0,1-1.061-.5Z" transform="translate(-16.203 -3.171)" fill="#0f3f93" class="svg-elem-14"></path>
        <path id="Path_7" data-name="Path 7" d="M210.248,49.887a6.319,6.319,0,0,1-2.57-.521,6.359,6.359,0,0,1-3.392-3.586,7.385,7.385,0,0,1-.48-2.693,7.159,7.159,0,0,1,.48-2.674,6.019,6.019,0,0,1,1.353-2.062,6.08,6.08,0,0,1,2.039-1.316,6.911,6.911,0,0,1,2.57-.466h7.2v2.322h-7.2a4.173,4.173,0,0,0-1.655.326,3.889,3.889,0,0,0-1.305.887,4.119,4.119,0,0,0-.854,1.353,4.654,4.654,0,0,0-.311,1.74,4.743,4.743,0,0,0,.311,1.743,4.252,4.252,0,0,0,.854,1.386,4.071,4.071,0,0,0,1.305.9,4.112,4.112,0,0,0,1.655.33h5.678V44.1h-5.988v-1.96h8.323v7.752Z" transform="translate(-17.762 -3.187)" fill="#0f3f93" class="svg-elem-15"></path>
      </g>
    </g>
  </g>
</svg>