<?xml version="1.0" encoding="UTF-8"?>
<svg xmlns="http://www.w3.org/2000/svg" version="1.1" viewBox="0 0 251.2 41.5">
  <defs>
    <style>
      .cls-1 {
        fill: #7f91a6;
      }

      .cls-2, .cls-3 {
        fill-rule: evenodd;
      }

      .cls-2, .cls-4 {
        fill: #0e3b83;
      }

      .cls-3 {
        fill: #e1013a;
      }

      .cls-5 {
        fill: #1d1d1b;
      }
    </style>
  </defs>
  <!-- Generator: Adobe Illustrator 28.6.0, SVG Export Plug-In . SVG Version: 1.2.0 Build 709)  -->
  <g>
    <g id="Layer_1">
      <g>
        <path class="cls-4" d="M69.1,6.7c0,.4-.3.7-.7.7s-.7-.3-.7-.7.3-.7.7-.7.7.3.7.7ZM69.1,11.9h-1.2v-4.3h1.2v4.3Z"/>
        <path class="cls-4" d="M74,11.9h-1.1l-1.8-2.4v2.4h-1.2v-4.3h1.1l1.8,2.4v-2.4h1.2v4.3Z"/>
        <path class="cls-4" d="M78,8.9c-.3-.2-.7-.4-1.2-.4s-.6,0-.6.3.4.3.9.4h.1c.9.2,1.3.6,1.3,1.3,0,1.1-.9,1.5-1.8,1.5s-1.5-.2-2-.5l.6-1c.3.2.8.4,1.4.4s.5,0,.5-.3-.3-.3-.8-.4h-.2c-1-.2-1.4-.6-1.4-1.4,0-.8.7-1.4,1.7-1.4s1.1,0,1.8.5l-.5,1Z"/>
        <path class="cls-4" d="M83.7,11.9h-1.2l-.3-.8h-1.6l-.3.8h-1.2l1.6-4.3h1.4l1.6,4.3ZM80.9,10h.9l-.4-1.3-.4,1.3Z"/>
        <path class="cls-4" d="M88.3,11.9h-1.1l-1.8-2.4v2.4h-1.2v-4.3h1.1l1.8,2.4v-2.4h1.2v4.3Z"/>
        <path class="cls-4" d="M69.4,17.6h-.3v1.6h-1.2v-4.3h1.2v1.6h.3l1.1-1.6h1.4l-1.6,2.1,1.7,2.2h-1.4l-1.2-1.6Z"/>
        <path class="cls-4" d="M76.9,19.2h-1.2l-.3-.8h-1.6l-.3.8h-1.2l1.6-4.3h1.4l1.6,4.3ZM74.1,17.4h.9l-.4-1.3-.4,1.3Z"/>
        <path class="cls-4" d="M80,17.6v1.6h-1.2v-1.6l-1.6-2.7h1.3l.9,1.6.9-1.6h1.3l-1.6,2.7Z"/>
        <path class="cls-4" d="M86.2,19.2h-1.1l-1.8-2.4v2.4h-1.2v-4.3h1.1l1.8,2.4v-2.4h1.2v4.3Z"/>
        <path class="cls-4" d="M91.4,19.2h-1.2l-.3-.8h-1.6l-.3.8h-1.2l1.6-4.3h1.4l1.6,4.3ZM88.6,17.4h.9l-.4-1.3-.4,1.3Z"/>
        <path class="cls-4" d="M93.5,17.6h-.3v1.6h-1.2v-4.3h1.2v1.6h.3l1.1-1.6h1.4l-1.6,2.1,1.7,2.2h-1.4l-1.2-1.6Z"/>
        <path class="cls-4" d="M99.8,19.2h-3.2v-4.3h1.2v3.2h2.1v1.1Z"/>
        <path class="cls-4" d="M104.8,19.2h-1.2l-.3-.8h-1.6l-.3.8h-1.2l1.6-4.3h1.4l1.6,4.3ZM102,17.4h.9l-.4-1.3-.4,1.3Z"/>
        <path class="cls-4" d="M108.9,16.4c0,.7-.4,1.1-1.1,1.3l1.2,1.6h-1.4l-1-1.5h0v1.5h-1.2v-4.3h1.9c1.1,0,1.7.6,1.7,1.4ZM106.5,16v.8h.7c.3,0,.5-.1.5-.4s-.2-.4-.5-.4h-.7Z"/>
        <path class="cls-4" d="M110.9,19.2h-1.2v-4.3h1.2v4.3Z"/>
        <path class="cls-4" d="M115.9,19.2h-1.4l-1.6-4.3h1.2l1,3.1,1-3.1h1.2l-1.6,4.3Z"/>
        <path class="cls-4" d="M121.4,19.2h-3.4v-4.3h3.4v1h-2.2v.6h2v1h-2v.6h2.2v1Z"/>
        <path class="cls-4" d="M71.3,26.6h-3.4v-4.3h3.4v1h-2.2v.6h2v1h-2v.6h2.2v1Z"/>
        <path class="cls-4" d="M75.8,22.8l-.8.8c-.2-.2-.5-.3-.8-.3-.6,0-1,.5-1,1.1s.5,1.2,1.1,1.2.9-.2,1-.6h-1v-.9h2.1c0,.1,0,.3,0,.4,0,1.4-1.1,2.2-2.1,2.2s-2.3-.9-2.3-2.2,1-2.2,2.3-2.2,1.2.2,1.6.6ZM73.7,20.8c0,.3.2.4.5.4s.4-.2.5-.4l.8.2c-.2.7-.6,1.1-1.3,1.1s-1.1-.4-1.3-1.1l.8-.2Z"/>
        <path class="cls-4" d="M78.2,21.5c0,.4-.3.7-.7.7s-.7-.3-.7-.7.3-.7.7-.7.7.3.7.7ZM78.2,26.6h-1.2v-4.3h1.2v4.3Z"/>
        <path class="cls-4" d="M82.4,23.4h-1.2v3.2h-1.2v-3.2h-1.2v-1.1h3.6v1.1Z"/>
        <path class="cls-4" d="M84.2,21.5c0,.4-.3.7-.7.7s-.7-.3-.7-.7.3-.7.7-.7.7.3.7.7ZM84.2,26.6h-1.2v-4.3h1.2v4.3Z"/>
        <path class="cls-4" d="M90,26.6h-1.2v-2.7l-.7,2.3h-1.2l-.7-2.3v2.7h-1.2v-4.3h1.6l.9,2.6.9-2.6h1.6v4.3Z"/>
        <path class="cls-4" d="M96.5,24.5c0,1.3-.9,2.1-2.2,2.1h-1.9v-4.3h1.9c1.3,0,2.2.9,2.2,2.1ZM93.6,23.4v2.2h.7c.7,0,1-.5,1-1.1s-.3-1.1-1-1.1h-.7Z"/>
        <path class="cls-4" d="M101.6,26.6h-1.2l-.3-.8h-1.6l-.3.8h-1.2l1.6-4.3h1.4l1.6,4.3ZM98.8,24.7h.9l-.4-1.3-.4,1.3Z"/>
        <path class="cls-4" d="M103.3,21.5c0,.4-.3.7-.7.7s-.7-.3-.7-.7.3-.7.7-.7.7.3.7.7ZM103.3,26.6h-1.2v-4.3h1.2v4.3Z"/>
        <path class="cls-4" d="M107.8,23.7c0,.7-.4,1.1-1.1,1.3l1.2,1.6h-1.4l-1-1.5h0v1.5h-1.2v-4.3h1.9c1.1,0,1.7.6,1.7,1.4ZM105.3,23.4v.8h.7c.3,0,.5-.1.5-.4s-.2-.4-.5-.4h-.7Z"/>
        <path class="cls-4" d="M111.9,26.6h-3.4v-4.3h3.4v1h-2.2v.6h2v1h-2v.6h2.2v1Z"/>
        <path class="cls-4" d="M115.8,23.6c-.3-.2-.7-.4-1.2-.4s-.6,0-.6.3.4.3.9.4h.1c.9.2,1.3.6,1.3,1.3,0,1.1-.9,1.5-1.8,1.5s-1.5-.2-2-.5l.6-1c.3.2.8.4,1.4.4s.5,0,.5-.3-.3-.3-.8-.4h-.2c-1-.2-1.4-.6-1.4-1.4,0-.8.7-1.4,1.7-1.4s1.1,0,1.8.5l-.5,1Z"/>
        <path class="cls-4" d="M118.3,21.5c0,.4-.3.7-.7.7s-.7-.3-.7-.7.3-.7.7-.7.7.3.7.7ZM118.3,26.6h-1.2v-4.3h1.2v4.3Z"/>
        <path class="cls-4" d="M69.9,29.7c1.2,0,1.7.5,1.7,1.2s-.2.7-.6.9c.4.1.7.5.7.9,0,.8-.5,1.2-1.6,1.2h-2v-4.3h1.9ZM69.1,30.6v.7h.7c.3,0,.5-.1.5-.4s-.2-.4-.5-.4h-.7ZM69.1,32.3v.7h.8c.3,0,.5-.1.5-.4s-.2-.4-.5-.4h-.8Z"/>
        <path class="cls-4" d="M76.7,34h-1.2l-.3-.8h-1.6l-.3.8h-1.2l1.6-4.3h1.4l1.6,4.3ZM73.9,32.1h.9l-.4-1.3-.4,1.3Z"/>
        <path class="cls-4" d="M80.4,31c-.3-.2-.7-.4-1.2-.4s-.6,0-.6.3.4.3.9.4h.1c.9.2,1.3.6,1.3,1.3s-.6,1.3-1.3,1.4l-.3,1h-1l.3-.9c-.6,0-1.1-.2-1.5-.5l.6-1c.3.2.8.4,1.4.4s.5,0,.5-.3-.3-.3-.8-.4h-.2c-1-.2-1.4-.6-1.4-1.4,0-.8.7-1.4,1.7-1.4s1.1,0,1.8.5l-.5,1Z"/>
        <path class="cls-4" d="M83.2,32.3h-.3v1.6h-1.2v-4.3h1.2v1.6h.3l1.1-1.6h1.4l-1.6,2.1,1.7,2.2h-1.4l-1.2-1.6Z"/>
        <path class="cls-4" d="M90.6,34h-1.2l-.3-.8h-1.6l-.3.8h-1.2l1.6-4.3h1.4l1.6,4.3ZM87.8,32.1h.9l-.4-1.3-.4,1.3Z"/>
        <path class="cls-4" d="M95.3,34h-1.1l-1.8-2.4v2.4h-1.2v-4.3h1.1l1.8,2.4v-2.4h1.2v4.3Z"/>
        <path class="cls-4" d="M99.4,34h-3.2v-4.3h1.2v3.2h2.1v1.1Z"/>
        <path class="cls-4" d="M101.1,34h-1.2v-4.3h1.2v4.3Z"/>
        <path class="cls-4" d="M105.7,30.2l-.8.8c-.2-.2-.5-.3-.8-.3-.6,0-1,.5-1,1.1s.5,1.2,1.1,1.2.9-.2,1-.6h-1v-.9h2.1c0,.1,0,.3,0,.4,0,1.4-1.1,2.2-2.1,2.2s-2.3-.9-2.3-2.2,1-2.2,2.3-2.2,1.2.2,1.6.6ZM103.6,28.2c0,.3.2.4.5.4s.4-.2.5-.4l.8.2c-.2.7-.6,1.1-1.3,1.1s-1.1-.4-1.3-1.1l.8-.2Z"/>
        <path class="cls-4" d="M108.1,34h-1.2v-4.3h1.2v4.3Z"/>
      </g>
      <rect class="cls-5" x="135" y=".5" width=".5" height="40.6"/>
      <rect class="cls-5" x="53.8" y=".5" width=".5" height="40.6"/>
      <g>
        <g>
          <g>
            <path class="cls-2" d="M10.8,27.3v.5c-.2,0-.3,0-.4,0,0,0,0,0-.1,0,0,0,0,0-.1,0-.1,0-.2,0-.3,0,0,0-.1.1-.1.2s0,0,0,.1c0,0,0,0,.2.1h.1c.3.1.5.2.6.3,0,0,.2.1.2.2,0,0,0,.2,0,.3,0,.3,0,.5-.3.6-.2.1-.5.2-.8.2s-.3,0-.4,0c-.1,0-.3,0-.4,0v-.6c.2,0,.3,0,.4.1,0,0,.1,0,.2,0,0,0,.1,0,.2,0,.1,0,.2,0,.3,0,0,0,.1-.1.1-.2s-.1-.2-.4-.3h-.1c-.2-.1-.4-.2-.5-.4-.1-.1-.2-.3-.2-.4s0-.5.3-.6c.2-.1.4-.2.8-.2s.3,0,.4,0c0,0,.1,0,.2,0,0,0,.1,0,.2,0Z"/>
            <polygon class="cls-2" points="12.5 27.3 14.5 27.3 14.5 27.8 13.8 27.8 13.8 29.9 13.2 29.9 13.2 27.8 12.5 27.8 12.5 27.3"/>
            <path class="cls-2" d="M17.2,27.9l-.3,1h.7l-.3-1ZM16.8,27.3h.8l1,2.6h-.7l-.2-.5h-1l-.2.5h-.7l1-2.6Z"/>
            <path class="cls-2" d="M20.1,27.3h.9l.7,1.5s0,.1,0,.2c0,0,0,0,0,.2,0,0,0,.1,0,.2,0-.1,0-.2,0-.4,0-.1,0-.2,0-.3v-1.5h.6v2.6h-.8l-.8-1.6c0,0,0-.1,0-.2,0,0,0-.2,0-.3,0,0,0,.1,0,.2s0,.1,0,.2c0,0,0,.1,0,.2s0,.1,0,.2v1.4h-.6v-2.6Z"/>
            <path class="cls-2" d="M25.1,28.8v.6h.3c.1,0,.2,0,.3,0,0,0,.1-.1.1-.2s0-.2,0-.2c0,0-.2,0-.3,0h-.3ZM25.1,27.8v.6h.2c.1,0,.3,0,.3,0s.1-.1.1-.2,0-.2-.1-.2-.2,0-.3,0h-.2ZM24.4,27.3h1c.3,0,.5,0,.7.2.2.1.2.3.2.5s0,.3-.1.4-.2.2-.4.2c.2,0,.3.1.4.2s.1.2.1.4c0,.2,0,.4-.3.5s-.4.2-.8.2h-1v-2.6Z"/>
            <path class="cls-2" d="M28.3,27.3h.7v1.5c0,.2,0,.4,0,.5s.2.1.3.1.3,0,.3-.2c0-.1.1-.3.1-.5v-1.5h.7v1.5c0,.4,0,.7-.3.8-.2.2-.5.3-.8.3s-.6,0-.8-.3c-.2-.2-.3-.5-.3-.8v-1.5Z"/>
            <polygon class="cls-2" points="32.4 27.3 33.1 27.3 33.1 29.4 34.1 29.4 34.1 29.9 32.4 29.9 32.4 27.3"/>
            <path class="cls-2" d="M6.5,26.7h.7v.3h-.7v-.3ZM6.5,27.3h.7v2.6h-.7v-2.6Z"/>
          </g>
          <g>
            <path class="cls-2" d="M1.1,34.5v1h.4c.2,0,.4,0,.5-.1.1,0,.2-.2.2-.4s0-.3-.2-.4-.3-.1-.5-.1h-.5ZM1.1,32.8v1h.3c.2,0,.4,0,.5-.1.1,0,.2-.2.2-.4s0-.3-.2-.3c-.1,0-.3-.1-.5-.1h-.4ZM0,32h1.8c.5,0,.9,0,1.2.3s.4.5.4.8,0,.5-.2.6-.3.3-.6.4c.3,0,.5.2.7.3s.2.4.2.7c0,.4-.1.7-.4.9-.3.2-.7.3-1.3.3H0v-4.3Z"/>
            <polygon class="cls-2" points="8.3 32 9.6 32 10.5 33.8 11.4 32 12.6 32 11 34.7 11 36.3 9.9 36.3 9.9 34.7 8.3 32"/>
            <path class="cls-2" d="M13,32h1.1v2.5c0,.4,0,.6.2.8.1.2.3.2.5.2s.4,0,.6-.3c.1-.2.2-.4.2-.8v-2.5h1.1v2.5c0,.6-.2,1.1-.5,1.4-.3.3-.8.5-1.4.5s-1.1-.2-1.4-.5c-.3-.3-.5-.8-.5-1.4v-2.5ZM15.1,31.1h1.1v.6h-1.1v-.6ZM13.6,31.1h1.1v.6h-1.1v-.6Z"/>
            <path class="cls-2" d="M4.2,32h1.1v2.5c0,.4,0,.6.2.8.1.2.3.2.5.2s.4,0,.6-.3c.1-.2.2-.4.2-.8v-2.5h1.1v2.5c0,.6-.2,1.1-.5,1.4-.3.3-.8.5-1.4.5s-1.1-.2-1.4-.5c-.3-.3-.5-.8-.5-1.4v-2.5ZM6.2,31.1h1.1v.6h-1.1v-.6ZM4.8,31.1h1.1v.6h-1.1v-.6Z"/>
            <polygon class="cls-2" points="17.8 32 18.9 32 18.9 33.9 20.2 32 21.5 32 19.9 34 21.7 36.3 20.3 36.3 18.9 34.3 18.9 36.3 17.8 36.3 17.8 32"/>
            <polygon class="cls-2" points="26 32 29 32 29 32.8 27.2 32.8 27.2 33.7 28.9 33.7 28.9 34.5 27.2 34.5 27.2 35.5 29.1 35.5 29.1 36.3 26 36.3 26 32"/>
            <polygon class="cls-2" points="30.1 32 31.2 32 31.2 33.7 32.6 33.7 32.6 32 33.7 32 33.7 36.3 32.6 36.3 32.6 34.5 31.2 34.5 31.2 36.3 30.1 36.3 30.1 32"/>
            <path class="cls-2" d="M34.8,31.1h1.1v.6h-1.1v-.6ZM34.8,32h1.1v4.3h-1.1v-4.3Z"/>
            <path class="cls-2" d="M38.1,32.8v1.1h.4c.2,0,.4,0,.6-.1.1,0,.2-.2.2-.4s0-.3-.2-.4c-.1,0-.4-.1-.7-.1h-.3ZM37,32h1.7c.6,0,1,0,1.3.3.3.2.4.5.4.8s0,.5-.2.7c-.1.2-.4.3-.6.4.2,0,.4.3.5.7l.5,1.4h-1.2l-.4-1.2c0-.2-.1-.3-.2-.4-.1,0-.3-.1-.5-.1h-.2v1.7h-1.1v-4.3Z"/>
            <path class="cls-2" d="M25.2,35c0,.5-.2.8-.5,1.1-.1.1-.3.2-.6.3v.6h-1.1v-.5c0,0-.2,0-.3,0-.2,0-.4,0-.6-.1v-1c.3,0,.5.2.7.2,0,0,.2,0,.3,0,0,0,.2,0,.3,0,.2,0,.4,0,.5-.1.1,0,.2-.2.2-.3s-.2-.3-.6-.5h-.2c-.4-.2-.7-.4-.9-.6-.2-.2-.3-.4-.3-.7s.2-.8.5-1c.3-.2.7-.4,1.3-.4s.4,0,.6,0c0,0,.2,0,.3,0,0,0,.2,0,.3,0v.9c-.3,0-.4-.1-.6-.2,0,0-.2,0-.2,0,0,0-.2,0-.2,0-.2,0-.4,0-.5.1-.1,0-.2.2-.2.3s0,.2,0,.2c0,0,.2.1.3.2h.2c.5.2.8.4,1,.5.1.1.3.2.3.4,0,.2.1.3.1.5Z"/>
          </g>
          <g>
            <path class="cls-2" d="M7.1,40v.6h.3c.1,0,.2,0,.3,0,0,0,.1-.1.1-.2s0-.2,0-.2c0,0-.2,0-.3,0h-.3ZM7.1,38.9v.6h.2c.1,0,.3,0,.3,0,0,0,.1-.1.1-.2s0-.2-.1-.2c0,0-.2,0-.3,0h-.2ZM6.5,38.5h1.1c.3,0,.5,0,.7.2.2.1.2.3.2.5s0,.3-.1.4c0,0-.2.2-.4.2.2,0,.3.1.4.2,0,.1.1.2.1.4,0,.2,0,.4-.3.5s-.4.2-.8.2h-1v-2.6Z"/>
            <polygon class="cls-2" points="9.7 38.5 11.5 38.5 11.5 38.9 10.4 38.9 10.4 39.5 11.5 39.5 11.5 39.9 10.4 39.9 10.4 40.5 11.6 40.5 11.6 41 9.7 41 9.7 38.5"/>
            <polygon class="cls-2" points="12.9 38.5 13.6 38.5 13.6 40.5 14.6 40.5 14.6 41 12.9 41 12.9 38.5"/>
            <polygon class="cls-2" points="15.7 38.5 17.5 38.5 17.5 38.9 16.4 38.9 16.4 39.5 17.4 39.5 17.4 39.9 16.4 39.9 16.4 40.5 17.5 40.5 17.5 41 15.7 41 15.7 38.5"/>
            <path class="cls-2" d="M19.5,39v1.6h.3c.2,0,.4,0,.6-.2.1-.1.2-.3.2-.6s0-.4-.2-.6-.3-.2-.6-.2h-.3ZM18.8,38.5h.9c.2,0,.4,0,.6,0,.2,0,.3,0,.4.1.2.1.3.3.4.5,0,.2.1.4.1.6s0,.5-.1.7c0,.2-.3.3-.5.5,0,0-.2,0-.4.1,0,0-.2,0-.3,0-.1,0-.2,0-.4,0h-.8v-2.6Z"/>
            <polygon class="cls-2" points="23.8 38.5 24.6 38.5 25.1 39.5 25.6 38.5 26.4 38.5 25.4 40.1 25.4 41 24.8 41 24.8 40.1 23.8 38.5"/>
            <polygon class="cls-2" points="27.3 38.5 29.1 38.5 29.1 38.9 28 38.9 28 39.5 29 39.5 29 39.9 28 39.9 28 40.5 29.2 40.5 29.2 41 27.3 41 27.3 38.5"/>
            <path class="cls-2" d="M32.1,38.5v.5c-.2,0-.3,0-.4,0,0,0,0,0-.1,0,0,0,0,0-.1,0-.1,0-.2,0-.3,0,0,0-.1.1-.1.2s0,0,0,.1c0,0,0,0,.2.1h.1c.3.1.5.2.6.3,0,0,.2.1.2.2,0,0,0,.2,0,.3,0,.3,0,.5-.3.6-.2.2-.5.2-.8.2s-.3,0-.4,0-.3,0-.4,0v-.6c.2,0,.3,0,.4.1,0,0,.1,0,.2,0,0,0,.1,0,.2,0,.1,0,.2,0,.3,0,0,0,.1-.1.1-.2s-.1-.2-.4-.3h-.1c-.2-.1-.4-.2-.5-.4-.1-.1-.2-.3-.2-.4s0-.5.3-.6c.2-.1.4-.2.8-.2s.3,0,.4,0c0,0,.1,0,.2,0,0,0,.1,0,.2,0Z"/>
            <path class="cls-2" d="M22.3,37.9h.7v.3h-.7v-.3ZM22.3,38.5h.7v2.6h-.7v-2.6Z"/>
            <path class="cls-2" d="M33.4,37.9h.7v.3h-.7v-.3ZM33.4,38.5h.7v2.6h-.7v-2.6Z"/>
          </g>
        </g>
        <path class="cls-4" d="M19.9,20.8v3.3c-4.2-.2-7.5-3.6-7.5-7.8v-.7h.7v.7h.7v-.7h.7v.7h.7v-.7h.7v.7c0,2.4,1.9,4.4,4.2,4.6ZM27.5,16.2h-.7v-.7h-.7v.7h-.7v-.7h-.7v.7c0,2.4-1.9,4.4-4.2,4.6v3.3c4.2-.2,7.5-3.6,7.5-7.8v-.7h-.7v.7ZM14.5,11c-1,0-1.8.7-2,1.6h4c-.2-.9-1-1.6-2-1.6ZM19.2,16.9l1,1.8,1-1.8h-2.1ZM22.4,15.1h-2.1l1,1.8,1-1.8ZM24.1,12.6h4c-.2-.9-1-1.6-2-1.6s-1.8.7-2,1.6ZM20.3,20.1c-2.1,0-3.8-1.7-3.8-3.8v-5.9l-.5-.5v-.5h.5v-2.2l.5-3.3.5,3.3v2.2h1.1v-2.2l-.5-.5v-.5h.5v-2.2l.5-3.3.5,3.3v2.2h1.1v-2.2l.5-3.3.5,3.3v2.2h.5v.5l-.5.5v2.2h1.1v-2.2l.5-3.3.5,3.3v2.2h.5v.5l-.5.5v5.9h0c0,2.1-1.7,3.8-3.8,3.8ZM21.9,12.8c.4.2.8.5,1.1.8v-3.2l-.5-.5-.5.5v2.4ZM19.7,9.3h1.1v-2.2l-.5-.5-.5.5v2.2ZM19.7,12.5c.2,0,.4,0,.5,0s.4,0,.5,0v-2.1l-.5-.5-.5.5v2.1ZM17.5,13.6c.3-.3.7-.6,1.1-.8v-2.4l-.5-.5-.5.5v3.2ZM22.4,18.7l-1-1.8h2.1l-1-1.8-1-1.8-1,1.8-1-1.8-1,1.8h2.1l-1,1.8-1-1.8-1,1.8h2.1l-1,1.8h4.2ZM14.1,13.2c-1.1,0-2.1.8-2.4,1.9h4.7c-.3-1.1-1.2-1.9-2.4-1.9ZM24.1,15.1h4.7c-.3-1.1-1.2-1.9-2.4-1.9s-2.1.8-2.4,1.9Z"/>
      </g>
      <rect class="cls-1" x="220.6" y="9.9" width=".4" height="21.8"/>
      <path class="cls-4" d="M165.6,9.9l4.2,7.3h-8.4l4.2-7.3ZM157.2,9.9l4.2,7.3h-8.4l4.2-7.3ZM153,17.2l4.2,7.3h-8.4l4.2-7.3ZM153,31.7l4.2-7.3,4.2,7.3h-8.4ZM157.2,24.4l4.2-7.3,4.2,7.3h-8.4ZM161.4,31.7l4.2-7.3,4.2,7.3h-8.4ZM165.7,24.4l4.2-7.3,4.2,7.3h-8.4Z"/>
      <g>
        <g>
          <path class="cls-1" d="M179.5,18v1.1h2.7c0,0,.1,0,.1.1v1c0,0,0,.1-.1.1h-3.9s0,0,0,0c0,0,0,0,0,0v-5.2s0,0,0,0c0,0,0,0,0,0h3.9s0,0,0,0c0,0,0,0,0,0v1s0,0,0,0c0,0,0,0,0,0h-2.7v.9h2.3c0,0,.1,0,.1.1v.8c0,0,0,.1-.1.1h-2.3Z"/>
          <path class="cls-1" d="M184.5,17.2v2.9c0,0,0,.1-.1.1h-1.1c0,0-.1,0-.1-.1v-5.1c0,0,0-.2.1-.2,0,0,0,0,.1,0,0,0,0,0,.1,0l3.2,2.9v-2.9c0,0,0-.1.1-.1h1.1c0,0,.1,0,.1.1v5.1c0,0,0,.2-.1.2,0,0-.2,0-.2,0l-3.2-2.9Z"/>
          <path class="cls-1" d="M191.1,20.3c-.5,0-1-.1-1.5-.4-.3-.2-.5-.3-.8-.6,0,0,0-.1,0-.2l.5-.6s0,0,0,0c0,0,0,0,.1,0,.2.1.4.3.6.4.3.2.7.3,1,.3.2,0,.3,0,.4,0,.2,0,.2-.2.2-.3s0-.2-.1-.3c0,0-.3-.1-.7-.3h-.3c-.6-.3-1.1-.6-1.3-.9-.3-.3-.4-.6-.4-1.1s0-.5.2-.7c.1-.2.3-.4.4-.5.4-.3.8-.4,1.4-.4s1,.1,1.4.4c.2.1.4.3.7.6,0,0,0,.1,0,.2l-.7.5s0,0,0,0c0,0,0,0,0,0-.3-.3-.6-.4-1-.5-.2,0-.4,0-.5,0-.2,0-.2.2-.2.4s.1.4.4.5c.1,0,.2,0,.3.1h.3c.7.3,1.1.6,1.4.9.2.3.4.6.4,1.1s-.2.9-.6,1.1c-.4.3-.9.4-1.5.4Z"/>
          <path class="cls-1" d="M198,14.8c0,0,.1,0,.1.1v1c0,0,0,.1-.1.1h-1.5v4.1c0,0,0,.1-.1.1h-1.1c0,0-.1,0-.1-.1v-4.1h-1.5c0,0-.1,0-.1-.1v-1c0,0,0-.1.1-.1h4.2Z"/>
          <path class="cls-1" d="M205.5,14.8c0,0,.1,0,.1.1v1c0,0,0,.1-.1.1h-1.5v4.1c0,0,0,.1-.1.1h-1.1c0,0-.1,0-.1-.1v-4.1h-1.5c0,0-.1,0-.1-.1v-1c0,0,0-.1.1-.1h4.2Z"/>
          <path class="cls-1" d="M208.7,20.3c-.7,0-1.2-.2-1.6-.7-.4-.4-.6-1-.6-1.6v-3.1c0,0,0-.1.1-.1h1.1c0,0,.1,0,.1.1v3.1c0,.3,0,.5.3.7.2.2.4.3.7.3s.5,0,.7-.3c.2-.2.3-.4.3-.7v-3.1c0,0,0-.1.1-.1h1.1c0,0,.1,0,.1.1v3.1c0,.6-.2,1.2-.6,1.6-.4.4-1,.7-1.6.7ZM207.3,14.1v-.9c0,0,0-.1.1-.1h.9c0,0,.1,0,.1.1v.9c0,0,0,.1-.1.1h-.9c0,0-.1,0-.1-.1ZM208.9,14.1v-.9c0,0,0-.1.1-.1h.9c0,0,.1,0,.1.1v.9c0,0,0,.1-.1.1h-.9c0,0-.1,0-.1-.1Z"/>
          <path class="cls-1" d="M199.1,20.2c0,0-.1,0-.1-.1v-5.2c0,0,0-.1.1-.1h1.1c0,0,.1,0,.1.1v5.2c0,0,0,.1-.1.1h-1.1ZM199.1,14.2c0,0-.1,0-.1-.1v-.9c0,0,0-.1.1-.1h1.1c0,0,.1,0,.1.1v.9c0,0,0,.1-.1.1h-1.1Z"/>
        </g>
        <g>
          <path class="cls-1" d="M182.8,28.4c-.5,0-1-.1-1.5-.4-.3-.2-.5-.3-.8-.6,0,0,0-.1,0-.2l.5-.6s0,0,0,0c0,0,0,0,.1,0,.2.1.4.3.6.4.3.2.7.3,1,.3.2,0,.3,0,.4,0,.2,0,.2-.2.2-.3s0-.2-.1-.3c0,0-.3-.1-.7-.3h-.3c-.6-.3-1.1-.6-1.3-.9-.3-.3-.4-.6-.4-1.1s0-.5.2-.7c.1-.2.3-.4.4-.5.4-.3.8-.4,1.4-.4s1,.1,1.4.4c.2.1.4.3.7.6,0,0,0,.1,0,.2l-.7.5s0,0,0,0c0,0,0,0,0,0-.3-.3-.6-.4-1-.5-.2,0-.4,0-.5,0-.2,0-.2.2-.2.4s.1.4.4.5c.1,0,.2,0,.3.1h.3c.7.3,1.1.6,1.4.9.2.3.4.6.4,1.1s-.2.9-.6,1.1c-.4.3-.9.4-1.5.4Z"/>
          <path class="cls-1" d="M189.5,22.9c0,0,.1,0,.1.1v1c0,0,0,.1-.1.1h-1.5v4.1c0,0,0,.1-.1.1h-1.1c0,0-.1,0-.1-.1v-4.1h-1.5c0,0-.1,0-.1-.1v-1c0,0,0-.1.1-.1h4.2Z"/>
          <path class="cls-1" d="M194.7,28.2s0,0,0,0,0,0,0,0h-1.1c0,0-.1,0-.2-.1l-.4-.8h-2l-.4.8c0,0,0,.1-.2.1h-1.1s0,0,0,0,0,0,0,0l2.4-5.2c0-.1.1-.2.3-.2s.2,0,.3.2l2.5,5.2ZM192,25.1l-.5,1.3h1.1l-.5-1.3Z"/>
          <path class="cls-1" d="M196.5,25.4v2.9c0,0,0,.1-.1.1h-1.1c0,0-.1,0-.1-.1v-5.1c0,0,0-.2.1-.2,0,0,0,0,.1,0,0,0,0,0,.1,0l3.2,2.9v-2.9c0,0,0-.1.1-.1h1.1c0,0,.1,0,.1.1v5.1c0,0,0,.2-.1.2,0,0-.2,0-.2,0l-3.2-2.9Z"/>
          <path class="cls-1" d="M203.7,22.9c.6,0,1,.1,1.3.4.4.3.5.7.5,1.1s-.1.7-.4,1c.6.2.9.7.9,1.4s-.2.9-.6,1.2c-.3.2-.8.4-1.3.4h-2.6c0,0,0,0,0,0v-5.2c0,0,0-.1.1-.1h2.2ZM204.3,24.5c0-.2,0-.4-.3-.5-.1,0-.3,0-.5,0h-.8v1.1h.8c.3,0,.5,0,.7-.2.1,0,.2-.2.2-.4ZM202.7,26v1.2h1.1c.2,0,.4,0,.6-.1.2,0,.3-.2.3-.4,0-.4-.3-.6-.8-.6h-1.1Z"/>
          <path class="cls-1" d="M209,28.4c-.7,0-1.2-.2-1.6-.7-.4-.4-.6-1-.6-1.6v-3.1c0,0,0-.1.1-.1h1.1c0,0,.1,0,.1.1v3.1c0,.3,0,.5.3.7.2.2.4.3.7.3s.5,0,.7-.3c.2-.2.3-.4.3-.7v-3.1c0,0,0-.1.1-.1h1.1c0,0,.1,0,.1.1v3.1c0,.6-.2,1.2-.6,1.6-.4.4-1,.7-1.6.7Z"/>
          <path class="cls-1" d="M213.9,27.2h2.5c0,0,.1,0,.1.1v1c0,0,0,.1-.1.1h-3.7s0,0,0,0c0,0,0,0,0,0v-5.2s0,0,0,0c0,0,0,0,0,0h1.1c0,0,.1,0,.1.1v4.1Z"/>
          <path class="cls-1" d="M178.3,28.4c0,0-.1,0-.1-.1v-5.2c0,0,0-.1.1-.1h1.1c0,0,.1,0,.1.1v5.2c0,0,0,.1-.1.1h-1.1ZM178.3,22.4c0,0-.1,0-.1-.1v-.9c0,0,0-.1.1-.1h1.1c0,0,.1,0,.1.1v.9c0,0,0,.1-.1.1h-1.1Z"/>
        </g>
      </g>
      <g>
        <path class="cls-3" d="M225.2,18.1h1.5v.9h-1.5v-.9h0ZM226.7,19.4v4.1h-1.5v-4.1h1.5Z"/>
        <path class="cls-3" d="M227.5,22.7l.8-1c.5.4,1.1.7,1.8.7s.6-.1.6-.4h0c0-.2-.2-.4-.9-.5-1.2-.3-2.1-.6-2.1-1.7h0c0-1,.8-1.8,2.1-1.8s1.6.2,2.2.7l-.8,1.1c-.5-.4-1-.5-1.5-.5s-.5.2-.5.3h0c0,.3.2.4.9.5,1.3.3,2,.7,2,1.7h0c0,1.1-.9,1.8-2.2,1.8s-1.9-.3-2.5-.9Z"/>
        <polygon class="cls-3" points="233.3 18.1 234.9 18.1 236.2 20.2 237.4 18.1 239 18.1 239 23.5 237.5 23.5 237.5 20.4 236.2 22.5 236.1 22.5 234.7 20.4 234.7 23.5 233.3 23.5 233.3 18.1"/>
        <polygon class="cls-3" points="240.3 18.1 244.7 18.1 244.7 19.4 241.8 19.4 241.8 20.2 244.4 20.2 244.4 21.4 241.8 21.4 241.8 22.2 244.7 22.2 244.7 23.5 240.3 23.5 240.3 18.1"/>
        <polygon class="cls-3" points="245.8 18.1 247.4 18.1 247.4 20.3 249.2 18.1 251 18.1 249 20.4 251.1 23.5 249.3 23.5 247.9 21.5 247.4 22.1 247.4 23.5 245.8 23.5 245.8 18.1"/>
      </g>
    </g>
  </g>
</svg>