<?xml version="1.0" standalone="no"?>
<!DOCTYPE svg PUBLIC "-//W3C//DTD SVG 20010904//EN"
 "http://www.w3.org/TR/2001/REC-SVG-20010904/DTD/svg10.dtd">
<svg version="1.0" xmlns="http://www.w3.org/2000/svg"
 width="30.000000pt" height="30.000000pt" viewBox="0 0 30.000000 30.000000"
 preserveAspectRatio="xMidYMid meet">

<g transform="translate(0.000000,30.000000) scale(0.100000,-0.100000)"
fill="#000000" stroke="none">
<path d="M73 270 c-87 -52 -83 -198 6 -245 38 -19 104 -19 142 0 89 47 93 193
6 245 -42 26 -112 26 -154 0z m57 -10 c0 -13 7 -20 20 -20 13 0 20 7 20 20 0
11 3 20 6 20 11 0 48 -23 68 -43 l21 -19 -22 11 c-18 9 -24 8 -31 -5 -6 -11
-11 -13 -16 -5 -12 20 -78 13 -103 -11 -51 -48 -15 -138 56 -138 49 0 81 32
81 81 0 21 -5 41 -10 44 -12 7 -4 25 11 25 6 0 7 -5 3 -12 -5 -7 0 -9 14 -6
24 7 32 -8 32 -55 0 -66 -62 -127 -130 -127 -68 0 -130 61 -130 127 0 51 9 64
39 56 24 -6 25 -5 11 13 -14 18 -14 18 3 5 10 -8 17 -9 17 -3 0 6 -7 15 -17
20 -14 8 -12 12 13 25 38 21 44 21 44 -3z m70 -60 c31 -31 26 -50 -15 -50 -33
0 -35 -2 -35 -35 0 -41 -19 -46 -50 -15 -31 31 -26 50 15 50 33 0 35 2 35 35
0 41 19 46 50 15z"/>
</g>
</svg>
