<?xml version="1.0" standalone="no"?>
<!DOCTYPE svg PUBLIC "-//W3C//DTD SVG 20010904//EN"
 "http://www.w3.org/TR/2001/REC-SVG-20010904/DTD/svg10.dtd">
<svg version="1.0" xmlns="http://www.w3.org/2000/svg"
 width="24.000000pt" height="24.000000pt" viewBox="0 0 24.000000 24.000000"
 preserveAspectRatio="xMidYMid meet">

<g transform="translate(0.000000,24.000000) scale(0.100000,-0.100000)"
fill="#000000" stroke="none">
<path d="M12 148 c-6 -6 -12 -20 -12 -29 0 -32 25 -40 125 -37 80 2 100 6 109
21 8 12 8 22 0 35 -9 14 -29 18 -110 20 -69 2 -103 -1 -112 -10z m43 -28 c0
-32 -21 -42 -31 -15 -8 20 2 45 18 45 8 0 13 -12 13 -30z m50 0 c0 -16 -4 -30
-10 -30 -5 0 -10 14 -10 30 0 17 5 30 10 30 6 0 10 -13 10 -30z m50 0 c0 -16
-4 -30 -10 -30 -5 0 -10 14 -10 30 0 17 5 30 10 30 6 0 10 -13 10 -30z m60 0
c0 -14 -6 -26 -15 -28 -11 -2 -15 6 -15 28 0 22 4 30 15 28 9 -2 15 -14 15
-28z"/>
</g>
</svg>
