<?xml version="1.0" encoding="UTF-8"?>
<!DOCTYPE svg PUBLIC "-//W3C//DTD SVG 1.1//EN" "http://www.w3.org/Graphics/SVG/1.1/DTD/svg11.dtd">
<svg xmlns="http://www.w3.org/2000/svg" version="1.1" width="30px" height="30px" style="shape-rendering:geometricPrecision; text-rendering:geometricPrecision; image-rendering:optimizeQuality; fill-rule:evenodd; clip-rule:evenodd" xmlns:xlink="http://www.w3.org/1999/xlink">
<g><path style="opacity:0.874" fill="#000000" d="M 6.5,3.5 C 11.8437,3.33398 17.1771,3.50065 22.5,4C 26.9772,10.0342 28.6439,16.8675 27.5,24.5C 26.1667,24.5 24.8333,24.5 23.5,24.5C 23.5,23.5 23.5,22.5 23.5,21.5C 17.5,21.5 11.5,21.5 5.5,21.5C 5.5,22.5 5.5,23.5 5.5,24.5C 4.16667,24.5 2.83333,24.5 1.5,24.5C 0.381911,16.7124 2.04858,9.71237 6.5,3.5 Z M 9.5,5.5 C 12.8499,5.33499 16.1832,5.50166 19.5,6C 20.9389,6.99064 21.9389,8.32398 22.5,10C 17.1667,10.6667 11.8333,10.6667 6.5,10C 7.22248,8.24947 8.22248,6.74947 9.5,5.5 Z M 11.5,14.5 C 13.604,14.2011 15.604,14.5344 17.5,15.5C 16.5,15.8333 15.5,16.1667 14.5,16.5C 12.9704,16.3601 11.9704,15.6935 11.5,14.5 Z"/></g>
</svg>
